<?xml version="1.0" encoding="utf-8"?>
<!-- Generator: Adobe Illustrator 21.0.0, SVG Export Plug-In . SVG Version: 6.00 Build 0)  -->
<svg version="1.1" id="Capa_1" xmlns="http://www.w3.org/2000/svg" xmlns:xlink="http://www.w3.org/1999/xlink" x="0px" y="0px"
	 viewBox="0 0 425 425" style="enable-background:new 0 0 425 425;" xml:space="preserve">
<path d="M296.5,403.3c-21.4-0.6-32.6-14.1-49.2-25c-17.1-11.3-38.5-4.6-57.2-9.7c-28.9-7.8-33.5-25.1-63.3-30.2
	c-16.7-2.6-48.5,7-65.5-6C12.3,295,31,222.8,55,182.8C89,126.1,41.4,89,104.9,43.6c73.5-52.5,116,8.6,131.1,18.2
	c25.5,16.3,56.2,9.6,80.5,21.3c58,28,34.3,99.8,35,117c2,52,40,63,40.2,113C391.8,361.4,349.3,404.8,296.5,403.3z"/>
</svg>
